Coordinates
version=1
nRows=41
nColumns=38
inDegrees=no

Units are S.I. units (second, meters, Newtons, ...)
If the header above contains a line with 'inDegrees', this indicates whether rotational values are in degrees (yes) or radians (no).

endheader
time	pelvis_tilt	pelvis_list	pelvis_rotation	pelvis_tx	pelvis_ty	pelvis_tz	hip_flexion_r	hip_adduction_r	hip_rotation_r	knee_angle_r	ankle_angle_r	subtalar_angle_r	mtp_angle_r	hip_flexion_l	hip_adduction_l	hip_rotation_l	knee_angle_l	ankle_angle_l	subtalar_angle_l	mtp_angle_l	lumbar_extension	lumbar_bending	lumbar_rotation	arm_flex_r	arm_add_r	arm_rot_r	elbow_flex_r	pro_sup_r	wrist_flex_r	wrist_dev_r	arm_flex_l	arm_add_l	arm_rot_l	elbow_flex_l	pro_sup_l	wrist_flex_l	wrist_dev_l
0.85	-3.07646	1.23523	-1.36092	0.735783	0.427247	1.07721	0.0585151	0.0568142	-0.083756	0.339323	-0.0665646	0	0	-0.465845	-0.192255	-0.0665332	0.691085	-0.151016	0	0	-0.508713	0.141844	-0.0544345	0.707809	-0.394393	0.861813	1.13277	0.397468	0	0	0.169252	-0.629644	-0.0372646	1.23157	0.688934	0	0
0.86	-3.08018	1.22722	-1.35425	0.735611	0.441451	1.07623	0.0447625	0.063488	-0.0807484	0.33994	-0.098188	0	0	-0.465017	-0.202393	-0.0652703	0.731779	-0.164301	0	0	-0.511188	0.145527	-0.0555596	0.707436	-0.394673	0.865538	1.13409	0.392736	0	0	0.164383	-0.633107	-0.0357172	1.23339	0.68408	0	0
0.87	-3.0847	1.22135	-1.34708	0.735729	0.456204	1.07554	0.0268205	0.0704297	-0.0773739	0.328333	-0.131845	0	0	-0.458545	-0.212793	-0.0637643	0.777277	-0.181946	0	0	-0.510702	0.14784	-0.0561718	0.703829	-0.393591	0.866574	1.1341	0.390324	0	0	0.158751	-0.636169	-0.034549	1.23449	0.681084	0	0
0.88	-3.09058	1.21631	-1.33831	0.735927	0.471155	1.07521	0.00994896	0.0773124	-0.0806773	0.319552	-0.165443	0	0	-0.447077	-0.22364	-0.0610362	0.827445	-0.205543	0	0	-0.509252	0.149947	-0.0568456	0.69874	-0.391786	0.866278	1.13348	0.38991	0	0	0.152806	-0.639125	-0.0336313	1.23532	0.678668	0	0
0.89	-3.09947	1.2122	-1.32699	0.735991	0.485773	1.07527	0.00309429	0.0834082	-0.0957513	0.333469	-0.190553	0	0	-0.429845	-0.234231	-0.0560913	0.882343	-0.233239	0	0	-0.508009	0.15299	-0.0568828	0.694325	-0.390429	0.865808	1.13296	0.390715	0	0	0.147363	-0.640511	-0.0338484	1.23598	0.676768	0	0
0.9	-3.11275	1.20942	-1.31239	0.735937	0.499796	1.07567	0.00801614	0.0886854	-0.11923	0.372047	-0.203267	0	0	-0.406542	-0.244259	-0.0485858	0.941327	-0.263675	0	0	-0.507053	0.157451	-0.0555517	0.691501	-0.389936	0.865638	1.13253	0.392001	0	0	0.143175	-0.639635	-0.0352903	1.23591	0.676065	0	0
0.91	-3.12909	1.2088	-1.29639	0.735905	0.513376	1.07631	0.0185409	0.0934734	-0.141199	0.417524	-0.207432	0	0	-0.377466	-0.252817	-0.0394263	1.00272	-0.29557	0	0	-0.505176	0.162131	-0.0525757	0.689697	-0.390005	0.865777	1.13173	0.39354	0	0	0.140181	-0.636739	-0.0375529	1.23482	0.67666	0	0
0.92	3.13797	1.20929	-1.28253	0.735921	0.526531	1.07724	0.0264998	0.0981282	-0.155226	0.452677	-0.210483	0	0	-0.345102	-0.25862	-0.0299877	1.06385	-0.325822	0	0	-0.503399	0.165917	-0.0480697	0.689007	-0.390501	0.866382	1.13062	0.395134	0	0	0.138327	-0.632564	-0.0399763	1.23296	0.678309	0	0
0.93	3.12515	1.21023	-1.2736	0.735934	0.539234	1.07845	0.0297604	0.101738	-0.163415	0.476122	-0.214322	0	0	-0.311294	-0.260482	-0.0199998	1.12217	-0.351728	0	0	-0.502561	0.167842	-0.0427242	0.689801	-0.391408	0.867894	1.12945	0.396455	0	0	0.137607	-0.628156	-0.0421208	1.23083	0.680299	0	0
0.94	3.11557	1.21277	-1.2695	0.735965	0.551718	1.07972	0.0315292	0.103201	-0.169856	0.494645	-0.21814	0	0	-0.275898	-0.258821	-0.0100152	1.17605	-0.374255	0	0	-0.5009	0.167424	-0.0369133	0.691031	-0.392452	0.869874	1.12835	0.397553	0	0	0.137004	-0.623589	-0.0443837	1.22855	0.682796	0	0
0.95	3.11073	1.21609	-1.2708	0.736137	0.564089	1.08112	0.0310821	0.102561	-0.176657	0.509664	-0.22024	0	0	-0.240786	-0.254055	0.000525718	1.22366	-0.390712	0	0	-0.498999	0.16418	-0.0312327	0.691767	-0.392964	0.871054	1.12709	0.39862	0	0	0.136932	-0.61995	-0.0458235	1.22604	0.685572	0	0
0.96	3.11221	1.21972	-1.27885	0.736522	0.576357	1.08276	0.0278428	0.100006	-0.182972	0.52136	-0.21946	0	0	-0.207465	-0.246015	0.0108445	1.26401	-0.399251	0	0	-0.497553	0.157653	-0.0257385	0.691703	-0.392813	0.870785	1.12587	0.400037	0	0	0.137689	-0.617803	-0.0460178	1.22346	0.687488	0	0
0.97	3.11975	1.22335	-1.29389	0.737178	0.588497	1.08462	0.0219563	0.0963312	-0.186696	0.529749	-0.215993	0	0	-0.17678	-0.235008	0.0188247	1.29835	-0.393519	0	0	-0.496994	0.148007	-0.0198143	0.691102	-0.392263	0.869271	1.12492	0.401932	0	0	0.13941	-0.617116	-0.0448629	1.22111	0.68832	0	0
0.98	3.13108	1.22798	-1.31382	0.738179	0.60068	1.08655	0.0155114	0.0922438	-0.186399	0.535455	-0.210208	0	0	-0.147395	-0.222487	0.0224956	1.32752	-0.373197	0	0	-0.495646	0.135545	-0.0127714	0.688532	-0.391303	0.864987	1.12429	0.40521	0	0	0.14204	-0.617575	-0.0420383	1.21878	0.689114	0	0
0.99	-3.13877	1.23148	-1.33578	0.739463	0.612828	1.08871	0.00624696	0.0891147	-0.183223	0.536912	-0.205165	0	0	-0.120545	-0.21077	0.0217477	1.35059	-0.350795	0	0	-0.495431	0.121938	-0.0053539	0.684906	-0.389644	0.858766	1.12365	0.409684	0	0	0.145463	-0.61933	-0.0381437	1.2169	0.689302	0	0
1	-3.12539	1.23372	-1.35681	0.740737	0.624947	1.09114	-0.00574393	0.086994	-0.179479	0.534579	-0.201506	0	0	-0.0956012	-0.199675	0.0201872	1.36706	-0.33186	0	0	-0.496076	0.108519	0.00180111	0.680144	-0.387604	0.850721	1.12277	0.415302	0	0	0.14958	-0.621673	-0.0332477	1.21509	0.68937	0	0
1.01	-3.11302	1.23457	-1.37443	0.741639	0.637023	1.09392	-0.0206647	0.0853441	-0.178788	0.529079	-0.19987	0	0	-0.0720444	-0.189212	0.0204472	1.37686	-0.318572	0	0	-0.497572	0.0967191	0.00711726	0.675434	-0.385371	0.843121	1.12112	0.420277	0	0	0.153446	-0.623385	-0.029178	1.21345	0.689103	0	0
1.02	-3.10185	1.2349	-1.38907	0.741992	0.648999	1.09694	-0.0372767	0.0832506	-0.181157	0.521472	-0.199524	0	0	-0.0494627	-0.179201	0.0214289	1.38051	-0.305398	0	0	-0.499134	0.086607	0.0111759	0.670119	-0.383229	0.834703	1.11882	0.426327	0	0	0.157493	-0.62387	-0.0252203	1.21142	0.688852	0	0
1.03	-3.09187	1.23512	-1.40115	0.741868	0.660824	1.10003	-0.0548548	0.0805436	-0.186712	0.512327	-0.200355	0	0	-0.0279674	-0.16956	0.0233508	1.37901	-0.290045	0	0	-0.500522	0.0781122	0.0140221	0.664888	-0.381215	0.826237	1.11603	0.43296	0	0	0.161311	-0.623156	-0.0219482	1.20913	0.689217	0	0
1.04	-3.08307	1.23585	-1.41129	0.74141	0.672542	1.10302	-0.0723721	0.0773254	-0.194899	0.501888	-0.20253	0	0	-0.00718998	-0.159849	0.0259121	1.37289	-0.272165	0	0	-0.501161	0.0708138	0.0159917	0.660079	-0.379275	0.818406	1.11284	0.439829	0	0	0.164412	-0.621513	-0.0197575	1.20691	0.690886	0	0
1.05	-3.07596	1.23741	-1.41957	0.740743	0.684179	1.10577	-0.0888912	0.0740874	-0.204984	0.491608	-0.2047	0	0	0.0132692	-0.150456	0.0281887	1.36232	-0.25585	0	0	-0.500842	0.0647175	0.0173539	0.656588	-0.377758	0.812941	1.10963	0.445282	0	0	0.166547	-0.619294	-0.0187338	1.20489	0.692914	0	0
1.06	-3.07035	1.23995	-1.42635	0.739924	0.695718	1.10822	-0.103872	0.0710236	-0.216326	0.481341	-0.207433	0	0	0.0337782	-0.141866	0.0295329	1.34751	-0.240779	0	0	-0.499244	0.0594688	0.0184193	0.653588	-0.376349	0.808321	1.10629	0.450438	0	0	0.168291	-0.616698	-0.01819	1.20274	0.695594	0	0
1.07	-3.06577	1.24367	-1.43272	0.739131	0.707201	1.11034	-0.116255	0.0679857	-0.228004	0.472956	-0.210643	0	0	0.0545455	-0.133828	0.0300034	1.32868	-0.227691	0	0	-0.496201	0.0543754	0.0198224	0.650749	-0.375036	0.804187	1.10299	0.455831	0	0	0.169962	-0.613862	-0.0178743	1.20028	0.698785	0	0
1.08	-3.06062	1.24853	-1.44046	0.738357	0.718603	1.11214	-0.125913	0.0643358	-0.239892	0.467454	-0.213426	0	0	0.0753974	-0.126111	0.0286133	1.30605	-0.218461	0	0	-0.491838	0.0488091	0.0217593	0.64785	-0.373926	0.800206	1.09983	0.461343	0	0	0.171791	-0.610922	-0.0172923	1.19744	0.702385	0	0
1.09	-3.0546	1.25465	-1.44982	0.737575	0.729865	1.11356	-0.132886	0.0602368	-0.250365	0.463967	-0.215369	0	0	0.0966501	-0.119138	0.0246218	1.28049	-0.213139	0	0	-0.486252	0.042838	0.0242716	0.644822	-0.373302	0.795938	1.09737	0.466787	0	0	0.173934	-0.607879	-0.0164057	1.19445	0.706079	0	0
1.1	-3.04837	1.26176	-1.46002	0.736758	0.741008	1.11455	-0.137764	0.0561669	-0.2585	0.461921	-0.216042	0	0	0.118041	-0.113578	0.0178128	1.25286	-0.210305	0	0	-0.479525	0.0368302	0.0274916	0.641476	-0.37337	0.791152	1.09591	0.471971	0	0	0.17638	-0.604819	-0.014937	1.19142	0.709726	0	0
1.11	-3.0422	1.26918	-1.47079	0.735977	0.75208	1.11521	-0.141774	0.0525374	-0.263423	0.46086	-0.214902	0	0	0.138588	-0.109802	0.00813573	1.2229	-0.208857	0	0	-0.472217	0.0308122	0.0315362	0.63783	-0.373961	0.785965	1.09524	0.476913	0	0	0.179213	-0.601869	-0.0129098	1.1884	0.712895	0	0
1.12	-3.03657	1.27632	-1.48173	0.735277	0.763115	1.11557	-0.14581	0.0496772	-0.264746	0.460183	-0.212021	0	0	0.157451	-0.107912	-0.00447153	1.19018	-0.208396	0	0	-0.464833	0.0249841	0.0363119	0.634143	-0.374734	0.780701	1.09491	0.481728	0	0	0.182037	-0.599315	-0.010402	1.18562	0.715624	0	0
1.13	-3.0314	1.28421	-1.49354	0.734715	0.774267	1.11561	-0.148735	0.047286	-0.261507	0.460308	-0.206437	0	0	0.175368	-0.107221	-0.0202858	1.15371	-0.21108	0	0	-0.455797	0.0189069	0.0428631	0.628792	-0.375528	0.773615	1.0948	0.487928	0	0	0.185133	-0.596536	-0.00698751	1.18225	0.718485	0	0
1.14	-3.02694	1.29005	-1.50464	0.734125	0.785277	1.11552	-0.153915	0.0456501	-0.256615	0.460821	-0.199359	0	0	0.189152	-0.107609	-0.0363293	1.11492	-0.213489	0	0	-0.448808	0.0137957	0.048864	0.624647	-0.376286	0.767622	1.09515	0.493246	0	0	0.187663	-0.594467	-0.00403869	1.17979	0.72021	0	0
1.15	-3.02297	1.29443	-1.51509	0.733449	0.796138	1.11526	-0.160324	0.0444399	-0.2504	0.46188	-0.191114	0	0	0.199638	-0.108317	-0.05137	1.07346	-0.216135	0	0	-0.443407	0.00947917	0.0542404	0.621736	-0.377183	0.762874	1.0959	0.497441	0	0	0.189577	-0.592907	-0.00169041	1.1783	0.721307	0	0
1.16	-3.01962	1.29773	-1.52477	0.73265	0.80684	1.11485	-0.167436	0.0434565	-0.243345	0.463329	-0.182181	0	0	0.20745	-0.108781	-0.0648225	1.02984	-0.218568	0	0	-0.439347	0.00601659	0.0589998	0.620035	-0.378302	0.759319	1.09702	0.500554	0	0	0.19096	-0.591283	-0.000371541	1.17758	0.721758	0	0
1.17	-3.01749	1.30016	-1.53298	0.731691	0.817439	1.11434	-0.174991	0.0425279	-0.236064	0.464949	-0.173634	0	0	0.213102	-0.108852	-0.0763192	0.984421	-0.220323	0	0	-0.436284	0.00357039	0.0630313	0.619369	-0.379563	0.757026	1.09828	0.502802	0	0	0.191878	-0.589764	0.000386674	1.17725	0.721845	0	0
1.18	-3.01807	1.30198	-1.5373	0.730584	0.828042	1.11375	-0.183529	0.0426475	-0.229081	0.465826	-0.165827	0	0	0.217237	-0.108955	-0.085118	0.937514	-0.220932	0	0	-0.433773	0.00258612	0.0658929	0.618962	-0.380672	0.755175	1.09956	0.504278	0	0	0.192407	-0.588514	0.000988998	1.17718	0.722174	0	0
1.19	-3.02158	1.30329	-1.53776	0.729266	0.838558	1.11305	-0.192781	0.0436544	-0.221789	0.466488	-0.158388	0	0	0.22022	-0.10924	-0.091398	0.890376	-0.21941	0	0	-0.431899	0.00312413	0.0677134	0.619118	-0.381839	0.75382	1.10096	0.505517	0	0	0.19277	-0.587445	0.00144581	1.1773	0.723005	0	0
1.2	-3.01709	1.30538	-1.54374	0.727658	0.848596	1.11242	-0.200595	0.0422995	-0.215964	0.468221	-0.150998	0	0	0.218144	-0.0997166	-0.0778318	0.829866	-0.212246	0	0	-0.430854	0.00200081	0.066796	0.620056	-0.382279	0.751713	1.1017	0.507105	0	0	0.194976	-0.587006	0.00246748	1.17712	0.723946	0	0
1.21	-3.00324	1.30754	-1.55572	0.725628	0.858076	1.1119	-0.207488	0.0381086	-0.214221	0.471492	-0.142286	0	0	0.208858	-0.079509	-0.0392958	0.752272	-0.200848	0	0	-0.431628	-0.000698355	0.0623012	0.621486	-0.381632	0.747452	1.10189	0.510435	0	0	0.199235	-0.587293	0.00408836	1.17695	0.724808	0	0
1.22	-2.98481	1.30965	-1.57075	0.723345	0.867382	1.11147	-0.21411	0.0323104	-0.214586	0.474759	-0.135312	0	0	0.192233	-0.0559529	0.0137716	0.659	-0.191808	0	0	-0.433335	-0.00410935	0.0559322	0.62307	-0.380284	0.742245	1.10174	0.514857	0	0	0.20394	-0.588018	0.00567162	1.17717	0.725425	0	0
1.23	-2.99372	1.31105	-1.56185	0.720954	0.877729	1.11022	-0.223232	0.0337894	-0.212536	0.475867	-0.129694	0	0	0.189651	-0.0553996	0.0182203	0.603543	-0.187224	0	0	-0.432091	0.000268024	0.0536571	0.623712	-0.381667	0.740802	1.10349	0.517103	0	0	0.203449	-0.587556	0.00602328	1.17889	0.725634	0	0
1.24	-3.00466	1.31317	-1.55088	0.718465	0.88832	1.10869	-0.231697	0.0358645	-0.21202	0.478191	-0.122687	0	0	0.188619	-0.0572468	0.0164524	0.553029	-0.180374	0	0	-0.429191	0.0051326	0.0515066	0.623695	-0.383185	0.739901	1.10499	0.518438	0	0	0.20246	-0.587037	0.00646463	1.18034	0.726104	0	0
1.25	-3.01704	1.31584	-1.53818	0.715826	0.899051	1.10696	-0.23903	0.0375825	-0.213091	0.481582	-0.116788	0	0	0.188547	-0.0602827	0.011031	0.506011	-0.171182	0	0	-0.425244	0.0104153	0.0490633	0.623363	-0.384847	0.739488	1.10643	0.51919	0	0	0.201191	-0.586283	0.00671787	1.18163	0.726638	0	0
